<svg id="Componente" xmlns="http://www.w3.org/2000/svg" xmlns:xlink="http://www.w3.org/1999/xlink" width="227.672" height="206.176" viewBox="0 0 227.672 206.176">
  <defs>
    <filter id="Trazado_3324" x="50.252" y="10.607" width="127.868" height="164.569" filterUnits="userSpaceOnUse">
      <feOffset dy="3" input="SourceAlpha"/>
      <feGaussianBlur stdDeviation="5" result="blur"/>
      <feFlood flood-opacity="0.161"/>
      <feComposite operator="in" in2="blur"/>
      <feComposite in="SourceGraphic"/>
    </filter>
    <clipPath id="clip-path">
      <ellipse id="Elipse_353" data-name="Elipse 353" cx="22" cy="23.5" rx="22" ry="23.5" transform="translate(267 2201)" fill="#7dc80b"/>
    </clipPath>
  </defs>
  <g id="Grupo_2298" data-name="Grupo 2298" transform="translate(-1024 -1613.797)">
    <rect id="Rectángulo_1518" data-name="Rectángulo 1518" width="111.214" height="24.467" rx="11" transform="translate(1140.458 1676.161)" fill="#e6e6e6"/>
    <rect id="Rectángulo_1530" data-name="Rectángulo 1530" width="111.214" height="24.467" rx="11" transform="translate(1031.458 1732.161)" fill="#e6e6e6"/>
    <rect id="Rectángulo_1524" data-name="Rectángulo 1524" width="111.214" height="24.467" rx="11" transform="translate(1132.046 1739.974)" fill="#e6e6e6"/>
    <rect id="Rectángulo_1499" data-name="Rectángulo 1499" width="52.271" height="24.467" rx="11" transform="translate(1105.607 1795.506)" fill="#e6e6e6"/>
    <circle id="Elipse_338" data-name="Elipse 338" cx="7.229" cy="7.229" r="7.229" transform="translate(1181.232 1739.899)" fill="#e6e6e6"/>
    <circle id="Elipse_339" data-name="Elipse 339" cx="7.229" cy="7.229" r="7.229" transform="translate(1024 1672.974)" fill="#e6e6e6"/>
    <circle id="Elipse_340" data-name="Elipse 340" cx="7.229" cy="7.229" r="7.229" transform="translate(1049.85 1613.797)" fill="#e6e6e6"/>
    <ellipse id="Elipse_352" data-name="Elipse 352" cx="4.729" cy="3.229" rx="4.729" ry="3.229" transform="translate(1191.85 1788.797)" fill="#e6e6e6"/>
  </g>
  <g id="Grupo_2303" data-name="Grupo 2303" transform="translate(-423 -2083.797)">
    <g transform="matrix(1, 0, 0, 1, 423, 2083.8)" filter="url(#Trazado_3324)">
      <g id="Trazado_3324-2" data-name="Trazado 3324" transform="translate(65.25 22.61)" fill="#fff">
        <path d="M 97.36832427978516 134.0689392089844 L 0.499994695186615 134.0689392089844 L 0.499994695186615 0.4999968707561493 L 86.36541748046875 0.4999968707561493 L 92.34208679199219 5.930760383605957 L 92.34663391113281 5.934887886047363 L 92.35128784179688 5.938906192779541 L 97.36832427978516 10.27763366699219 L 97.36832427978516 134.0689392089844 Z" stroke="none"/>
        <path d="M 0.9999923706054688 1 L 0.9999923706054688 133.5689392089844 L 96.86832427978516 133.5689392089844 L 96.86832427978516 10.50624847412109 L 92.02421569824219 6.317092895507813 L 92.01492309570313 6.309066772460938 L 92.00585174560547 6.300796508789063 L 86.17221069335938 1 L 0.9999923706054688 1 M -7.62939453125e-06 0 L 86.55867004394531 0 L 92.67833709716797 5.560699462890625 L 97.86832427978516 10.04898071289063 L 97.86832427978516 134.5689392089844 L -7.62939453125e-06 134.5689392089844 L -7.62939453125e-06 0 Z" stroke="none" fill="#d7d8d9"/>
      </g>
    </g>
    <path id="Trazado_3325" data-name="Trazado 3325" d="M281,866v10.751h11.121" transform="translate(292.887 1240.404)" fill="none" stroke="#d7d8d9" stroke-width="1"/>
    <rect id="Rectángulo_1531" data-name="Rectángulo 1531" width="45.042" height="7.785" rx="3.892" transform="translate(520.948 2146.212)" fill="#e6e6e6"/>
    <rect id="Rectángulo_1532" data-name="Rectángulo 1532" width="7.044" height="7.785" rx="3.522" transform="translate(507.788 2146.212)" fill="#e6e6e6"/>
    <rect id="Rectángulo_1533" data-name="Rectángulo 1533" width="45.042" height="7.785" rx="3.892" transform="translate(520.948 2161.782)" fill="#e6e6e6"/>
    <rect id="Rectángulo_1534" data-name="Rectángulo 1534" width="7.044" height="7.785" rx="3.522" transform="translate(507.788 2161.782)" fill="#e6e6e6"/>
    <rect id="Rectángulo_1535" data-name="Rectángulo 1535" width="45.042" height="7.785" rx="3.892" transform="translate(520.948 2177.352)" fill="#0acbc7"/>
    <rect id="Rectángulo_1538" data-name="Rectángulo 1538" width="45.042" height="7.785" rx="3.892" transform="translate(520.948 2193.352)" fill="#0acbc7"/>
    <rect id="Rectángulo_1536" data-name="Rectángulo 1536" width="7.044" height="7.785" rx="3.522" transform="translate(507.788 2177.352)" fill="#002665"/>
    <rect id="Rectángulo_1537" data-name="Rectángulo 1537" width="7.044" height="7.785" rx="3.522" transform="translate(507.788 2193.352)" fill="#002665"/>
  </g>
  <g id="Grupo_2304" data-name="Grupo 2304" transform="translate(-122 -2019.797)">
    <g id="Elipse_335" data-name="Elipse 335" transform="translate(292 2028)" fill="#fff" stroke="#d7d8d9" stroke-width="2">
      <circle cx="6.5" cy="6.5" r="6.5" stroke="none"/>
      <circle cx="6.5" cy="6.5" r="5.5" fill="none"/>
    </g>
    <line id="Línea_166" data-name="Línea 166" x2="6.39" y2="4.26" transform="translate(303.182 2038.117)" fill="none" stroke="#d7d8d9" stroke-linecap="round" stroke-width="2"/>
  </g>
  <g id="Grupo_2305" data-name="Grupo 2305" transform="translate(-265 -1856.797)">
    <g id="Elipse_335-2" data-name="Elipse 335" transform="translate(292 2028)" fill="#fff" stroke="#d7d8d9" stroke-width="2">
      <circle cx="6.5" cy="6.5" r="6.5" stroke="none"/>
      <circle cx="6.5" cy="6.5" r="5.5" fill="none"/>
    </g>
    <line id="Línea_166-2" data-name="Línea 166" x2="6.39" y2="4.26" transform="translate(303.182 2038.117)" fill="none" stroke="#d7d8d9" stroke-linecap="round" stroke-width="2"/>
  </g>
  <g id="Grupo_2307" data-name="Grupo 2307" transform="translate(-142 -2101.797)">
    <g id="Grupo_2306" data-name="Grupo 2306" transform="translate(-30 164)">
      <g id="Elipse_335-3" data-name="Elipse 335" transform="translate(292 2028)" fill="#fff" stroke="#d7d8d9" stroke-width="5">
        <circle cx="27.5" cy="27.5" r="27.5" stroke="none"/>
        <circle cx="27.5" cy="27.5" r="25" fill="none"/>
      </g>
      <line id="Línea_166-3" data-name="Línea 166" x2="27.111" y2="18.074" transform="translate(339.444 2070.926)" fill="none" stroke="#d7d8d9" stroke-linecap="round" stroke-width="5"/>
    </g>
    <path id="Trazado_3326" data-name="Trazado 3326" d="M1758.5,2239.5v-30" transform="translate(-1452 -5)" fill="none" stroke="#d7d8d9" stroke-linecap="round" stroke-width="2"/>
    <g id="Enmascarar_grupo_1" data-name="Enmascarar grupo 1" transform="translate(0 -5)" clip-path="url(#clip-path)">
      <path id="Rectángulo_1539" data-name="Rectángulo 1539" d="M3,0H25.042a6,6,0,0,1,6,6v.785a6,6,0,0,1-6,6H4a4,4,0,0,1-4-4V3A3,3,0,0,1,3,0Z" transform="translate(264.948 2214.352)" fill="#0acbc7"/>
    </g>
  </g>
</svg>
