<svg xmlns="http://www.w3.org/2000/svg" xmlns:xlink="http://www.w3.org/1999/xlink" width="162.768" height="195.743" viewBox="0 0 162.768 195.743">
  <defs>
    <filter id="Trazado_3299" x="17.712" y="35.075" width="145.055" height="95.696" filterUnits="userSpaceOnUse">
      <feOffset dy="3" input="SourceAlpha"/>
      <feGaussianBlur stdDeviation="5" result="blur"/>
      <feFlood flood-opacity="0.161"/>
      <feComposite operator="in" in2="blur"/>
      <feComposite in="SourceGraphic"/>
    </filter>
  </defs>
  <g id="Componente" transform="translate(0 2.769)">
    <g id="Grupo_2262" data-name="Grupo 2262" transform="translate(0 0)">
      <g id="Grupo_2255" data-name="Grupo 2255" transform="translate(131.233 5.523)">
        <path id="Trazado_3292" data-name="Trazado 3292" d="M903.824,195.111v-5.432l-3.5-3.705a1.162,1.162,0,0,1-.223-1.275,1.13,1.13,0,0,1,1.052-.7h12.979a1.2,1.2,0,0,1,1.114.737,1.236,1.236,0,0,1-.231,1.353l-9.209,9.824a1.122,1.122,0,0,1-.826.366,1.151,1.151,0,0,1-1.155-1.147Z" transform="translate(-900 -184)" fill="#e6e6e6"/>
        <path id="Trazado_3293" data-name="Trazado 3293" d="M903.824,195.111v-5.432l-3.5-3.705a1.162,1.162,0,0,1-.223-1.275,1.13,1.13,0,0,1,1.052-.7h12.979a1.2,1.2,0,0,1,1.114.737,1.236,1.236,0,0,1-.231,1.353l-9.209,9.824a1.122,1.122,0,0,1-.826.366,1.151,1.151,0,0,1-1.155-1.147Z" transform="translate(-900 -184)" fill="none"/>
        <path id="Trazado_3294" data-name="Trazado 3294" d="M906.549,195.02l8.049-8.585-11.785-.366,1.308,1.308,1.822,1.915,2.605-1.266a.753.753,0,0,1,1.005.352l.011.024a.8.8,0,0,1-.365,1.047l-2.652,1.289Z" transform="translate(-901.196 -184.879)" fill="#fff"/>
      </g>
      <g id="Grupo_2258" data-name="Grupo 2258" transform="translate(6.673 143.429)">
        <path id="Trazado_3292-2" data-name="Trazado 3292" d="M905.54,199.646V192l-5.072-5.218a1.6,1.6,0,0,1-.323-1.8,1.639,1.639,0,0,1,1.524-.984h18.8a1.743,1.743,0,0,1,1.613,1.038,1.7,1.7,0,0,1-.334,1.9L908.41,200.777a1.666,1.666,0,0,1-2.87-1.1Z" transform="translate(-900 -184)" fill="#e6e6e6"/>
        <path id="Trazado_3293-2" data-name="Trazado 3293" d="M905.54,199.646V192l-5.072-5.218a1.6,1.6,0,0,1-.323-1.8,1.639,1.639,0,0,1,1.524-.984h18.8a1.743,1.743,0,0,1,1.613,1.038,1.7,1.7,0,0,1-.334,1.9L908.41,200.777a1.666,1.666,0,0,1-2.87-1.1Z" transform="translate(-900 -184)" fill="none"/>
        <path id="Trazado_3294-2" data-name="Trazado 3294" d="M908.734,200.032l12.755-13.393-18.676-.57,2.073,2.04,2.887,2.987,4.129-1.975a1.2,1.2,0,0,1,1.593.549l.017.037a1.234,1.234,0,0,1-.578,1.633l-4.2,2.011Z" transform="translate(-901.196 -184.88)" fill="#fff"/>
      </g>
      <rect id="Rectángulo_1518" data-name="Rectángulo 1518" width="111.214" height="24.467" rx="11" transform="translate(14.458 36.161)" fill="#e6e6e6"/>
      <rect id="Rectángulo_1524" data-name="Rectángulo 1524" width="111.214" height="24.467" rx="11" transform="translate(50.046 73.974)" fill="#e6e6e6"/>
      <rect id="Rectángulo_1499" data-name="Rectángulo 1499" width="52.271" height="24.467" rx="11" transform="translate(55.607 168.506)" fill="#e6e6e6"/>
      <circle id="Elipse_338" data-name="Elipse 338" cx="7.229" cy="7.229" r="7.229" transform="translate(131.233 112.899)" fill="#e6e6e6"/>
      <circle id="Elipse_339" data-name="Elipse 339" cx="7.229" cy="7.229" r="7.229" transform="translate(0 73.974)" fill="#e6e6e6"/>
      <circle id="Elipse_340" data-name="Elipse 340" cx="7.229" cy="7.229" r="7.229" transform="translate(77.85 2.797)" fill="#e6e6e6"/>
      <path id="Trazado_3282" data-name="Trazado 3282" d="M725,331.887l6.471,4.853,11.324-17.255" transform="translate(-595.992 -178.243)" fill="none" stroke="#e6e6e6" stroke-linecap="round" stroke-linejoin="round" stroke-width="4"/>
      <path id="Trazado_3283" data-name="Trazado 3283" d="M546,201.887l6.471,4.853,11.324-17.255" transform="translate(-525.982 -189.485)" fill="none" stroke="#e6e6e6" stroke-linecap="round" stroke-linejoin="round" stroke-width="4"/>
      <g id="Grupo_2260" data-name="Grupo 2260" transform="translate(14.002 45.059)">
        <g id="Grupo_2259" data-name="Grupo 2259" transform="translate(20.104 0)">
          <path id="Trazado_3301" data-name="Trazado 3301" d="M984.61,905.436l-8.277-29.246,84.7-37.523Z" transform="translate(-949.295 -838.667)" fill="#fff" stroke="#d7d8d9" stroke-width="1"/>
          <g transform="matrix(1, 0, 0, 1, -34.11, -47.83)" filter="url(#Trazado_3299)">
            <path id="Trazado_3299-2" data-name="Trazado 3299" d="M930.361,884.5l-28.694-16,112.569-24.831-42.214,64.286L943.328,892.5l68.7-47.456Z" transform="translate(-867.56 -795.84)" fill="#fff" stroke="#d7d8d9" stroke-width="1"/>
          </g>
          <path id="Trazado_3300" data-name="Trazado 3300" d="M944,920.877l15.175-13.519-8.277-4.69Z" transform="translate(-908.96 -853.832)" fill="#f3f3f3" stroke="#d7d8d9" stroke-width="1"/>
        </g>
        <path id="Trazado_3302" data-name="Trazado 3302" stroke="#d7d8d9" d="M837.2,921.667s-36.7-8.766-45.6,4.58,43.373,30.028,58.943,35.589,20.018,20.018,3.892,25.023" fill="none" transform="translate(-790.59 -873.845)" stroke-linecap="round" stroke-linejoin="round" stroke-width="2" stroke-dasharray="3 4"/>
      </g>
      <g id="Grupo_2250" data-name="Grupo 2250" transform="translate(55.607 113.047)">
        <circle id="Elipse_341" data-name="Elipse 341" cx="22.248" cy="22.248" r="22.248" transform="translate(5.721 3.178)" fill="#ccc" opacity="0.74"/>
        <circle id="Elipse_342" data-name="Elipse 342" cx="23.837" cy="23.837" r="23.837" transform="translate(0 0)" fill="#81d502"/>
        <path id="Trazado_3280" data-name="Trazado 3280" d="M578.713,284.1A23.857,23.857,0,0,1,608.5,261.011a23.836,23.836,0,1,0-24.6,37.915A23.729,23.729,0,0,1,578.713,284.1Z" transform="translate(-566 -252)" fill="#528405" opacity="0.22"/>
        <path id="Trazado_3281" data-name="Trazado 3281" d="M587,285.62l7.628,5.721L607.977,271" transform="translate(-573.651 -258.923)" fill="none" stroke="#fff" stroke-linecap="round" stroke-linejoin="round" stroke-width="6"/>
      </g>
    </g>
  </g>
</svg>
