<svg xmlns="http://www.w3.org/2000/svg" xmlns:xlink="http://www.w3.org/1999/xlink" width="173.494" height="187.461" viewBox="0 0 173.494 187.461">
  <defs>
    <filter id="Trazado_3295" x="12.5" y="15.079" width="136" height="120.998" filterUnits="userSpaceOnUse">
      <feOffset dy="3" input="SourceAlpha"/>
      <feGaussianBlur stdDeviation="5" result="blur"/>
      <feFlood flood-opacity="0.161"/>
      <feComposite operator="in" in2="blur"/>
      <feComposite in="SourceGraphic"/>
    </filter>
    <filter id="Elipse_348" x="51" y="25.079" width="60" height="60" filterUnits="userSpaceOnUse">
      <feOffset dy="3" input="SourceAlpha"/>
      <feGaussianBlur stdDeviation="5" result="blur-2"/>
      <feFlood flood-opacity="0.169"/>
      <feComposite operator="in" in2="blur-2"/>
      <feComposite in="SourceGraphic"/>
    </filter>
  </defs>
  <g id="Componente" transform="translate(0 0.577)">
    <rect id="Rectángulo_1518" data-name="Rectángulo 1518" width="111.214" height="24.467" rx="11" transform="translate(62.28 64.548)" fill="#e6e6e6"/>
    <rect id="Rectángulo_1523" data-name="Rectángulo 1523" width="111.214" height="24.467" rx="11" transform="translate(6.673 26.736)" fill="#e6e6e6"/>
    <rect id="Rectángulo_1520" data-name="Rectángulo 1520" width="111.214" height="24.467" rx="11" transform="translate(0 100.137)" fill="#e6e6e6"/>
    <g transform="matrix(1, 0, 0, 1, 0, -0.58)" filter="url(#Trazado_3295)">
      <g id="Trazado_3295-2" data-name="Trazado 3295" transform="translate(27.5 27.08)" fill="#fff">
        <path d="M 105.5 90.49816131591797 L 0.5 90.49816131591797 L 0.5 0.5000044703483582 L 93.75065612792969 0.5000044703483582 L 105.5 0.5000044703483582 L 105.5 6.795324325561523 L 105.5 90.49816131591797 Z" stroke="none"/>
        <path d="M 1 1 L 1 89.9981689453125 L 105 89.9981689453125 L 105 6.795326232910156 L 105 1 L 93.75064086914063 1 L 1 1 M 0 0 L 93.75064086914063 0 L 106 0 L 106 6.795326232910156 L 106 90.9981689453125 L 0 90.9981689453125 L 0 0 Z" stroke="none" fill="#d7d8d9"/>
      </g>
    </g>
    <rect id="Rectángulo_1499" data-name="Rectángulo 1499" width="52.271" height="24.467" rx="11" transform="translate(55.607 162.417)" fill="#e6e6e6"/>
    <ellipse id="Elipse_339" data-name="Elipse 339" cx="3.729" cy="4.229" rx="3.729" ry="4.229" transform="translate(139 129.885)" fill="#e6e6e6"/>
    <circle id="Elipse_340" data-name="Elipse 340" cx="3.729" cy="3.729" r="3.729" transform="translate(135.466 3.296)" fill="#e6e6e6"/>
    <path id="Trazado_3282" data-name="Trazado 3282" d="M725,326.735l3.782,2.837,6.619-10.087" transform="translate(-582.207 -280.603)" fill="none" stroke="#e6e6e6" stroke-linecap="round" stroke-linejoin="round" stroke-width="3"/>
    <path id="Trazado_3283" data-name="Trazado 3283" d="M546,197.628l4.248,3.186,7.435-11.329" transform="translate(-527.439 -187.985)" fill="none" stroke="#e6e6e6" stroke-linecap="round" stroke-linejoin="round" stroke-width="3"/>
    <g id="Grupo_2250" data-name="Grupo 2250" transform="translate(55.607 106.958)">
      <circle id="Elipse_341" data-name="Elipse 341" cx="22.248" cy="22.248" r="22.248" transform="translate(5.721 3.178)" fill="#ccc" opacity="0.74"/>
      <circle id="Elipse_342" data-name="Elipse 342" cx="23.837" cy="23.837" r="23.837" transform="translate(0 0)" fill="#81d502"/>
      <path id="Trazado_3280" data-name="Trazado 3280" d="M578.713,284.1A23.857,23.857,0,0,1,608.5,261.011a23.836,23.836,0,1,0-24.6,37.915A23.729,23.729,0,0,1,578.713,284.1Z" transform="translate(-566 -252)" fill="#528405" opacity="0.22"/>
      <path id="Trazado_3281" data-name="Trazado 3281" d="M587,285.62l7.628,5.721L607.977,271" transform="translate(-573.651 -258.923)" fill="none" stroke="#fff" stroke-linecap="round" stroke-linejoin="round" stroke-width="6"/>
    </g>
    <path id="participacion" d="M.465,5.723,6.355.352A1.166,1.166,0,0,1,7.133,0c.361,0,.782.246.782.941V4.253a7.68,7.68,0,0,1,4.749,1.986A6.42,6.42,0,0,1,14.8,10.986a6.2,6.2,0,0,1-.422,2.25.449.449,0,0,1-.818,0,6.5,6.5,0,0,0-5.65-3.954v3.277c0,.694-.421.941-.782.941a1.166,1.166,0,0,1-.778-.352L.465,7.776a1.366,1.366,0,0,1,0-2.053Zm.613,1.494,5.89,5.372c.028.025.053.045.074.061a.79.79,0,0,0,0-.091V8.869a.379.379,0,0,1,.129-.281.456.456,0,0,1,.3-.114h0a7.833,7.833,0,0,1,4.266,1.287,7,7,0,0,1,2.106,2.156,5.485,5.485,0,0,0,.079-.93c0-3.249-2.9-5.922-6.46-5.958a.415.415,0,0,1-.429-.4V.941a.821.821,0,0,0,0-.091C7.021.866,7,.886,6.969.911L1.078,6.283a.623.623,0,0,0,0,.934Zm0,0" transform="translate(73)" fill="#d7d8d9"/>
    <path id="participacion-2" data-name="participacion" d="M.465,5.723,6.355.352A1.166,1.166,0,0,1,7.133,0c.361,0,.782.246.782.941V4.253a7.68,7.68,0,0,1,4.749,1.986A6.42,6.42,0,0,1,14.8,10.986a6.2,6.2,0,0,1-.422,2.25.449.449,0,0,1-.818,0,6.5,6.5,0,0,0-5.65-3.954v3.277c0,.694-.421.941-.782.941a1.166,1.166,0,0,1-.778-.352L.465,7.776a1.366,1.366,0,0,1,0-2.053Zm.613,1.494,5.89,5.372c.028.025.053.045.074.061a.79.79,0,0,0,0-.091V8.869a.379.379,0,0,1,.129-.281.456.456,0,0,1,.3-.114h0a7.833,7.833,0,0,1,4.266,1.287,7,7,0,0,1,2.106,2.156,5.485,5.485,0,0,0,.079-.93c0-3.249-2.9-5.922-6.46-5.958a.415.415,0,0,1-.429-.4V.941a.821.821,0,0,0,0-.091C7.021.866,7,.886,6.969.911L1.078,6.283a.623.623,0,0,0,0,.934Zm0,0" transform="translate(3 63)" fill="#d7d8d9"/>
    <text id="_" data-name="$" transform="translate(143 116)" fill="#d7d8d9" font-size="17" font-family="OpenSans-Bold, Open Sans" font-weight="700"><tspan x="0" y="0">$</tspan></text>
    <text id="_2" data-name="$" transform="translate(20 152)" fill="#d7d8d9" font-size="17" font-family="OpenSans-Bold, Open Sans" font-weight="700"><tspan x="0" y="0">$</tspan></text>
    <text id="_0_00" data-name="0,00" transform="translate(54 96)" fill="#d7d8d9" font-size="27" font-family="OpenSans-Semibold, Open Sans" font-weight="600"><tspan x="0" y="0">0,00</tspan></text>
    <g id="Grupo_2256" data-name="Grupo 2256" transform="translate(65.728 36.75)">
      <g transform="matrix(1, 0, 0, 1, -65.73, -37.33)" filter="url(#Elipse_348)">
        <g id="Elipse_348-2" data-name="Elipse 348" transform="translate(66 37.08)" fill="#fff" stroke="#d7d8d9" stroke-width="1" opacity="0.6">
          <circle cx="15" cy="15" r="15" stroke="none"/>
          <circle cx="15" cy="15" r="14.5" fill="none"/>
        </g>
      </g>
      <text id="_3" data-name="$" transform="translate(10.272 21.25)" fill="#d7d8d9" font-size="17" font-family="OpenSans-Bold, Open Sans" font-weight="700"><tspan x="0" y="0">$</tspan></text>
    </g>
  </g>
</svg>
