<svg id="Componente" xmlns="http://www.w3.org/2000/svg" xmlns:xlink="http://www.w3.org/1999/xlink" width="173.494" height="210.884" viewBox="0 0 173.494 210.884">
  <defs>
    <filter id="Trazado_3295" x="17.252" y="19.404" width="127.868" height="164.569" filterUnits="userSpaceOnUse">
      <feOffset dy="3" input="SourceAlpha"/>
      <feGaussianBlur stdDeviation="5" result="blur"/>
      <feFlood flood-opacity="0.161"/>
      <feComposite operator="in" in2="blur"/>
      <feComposite in="SourceGraphic"/>
    </filter>
    <filter id="Elipse_348" x="52" y="32.502" width="60" height="60" filterUnits="userSpaceOnUse">
      <feOffset dy="3" input="SourceAlpha"/>
      <feGaussianBlur stdDeviation="5" result="blur-2"/>
      <feFlood flood-opacity="0.169"/>
      <feComposite operator="in" in2="blur-2"/>
      <feComposite in="SourceGraphic"/>
    </filter>
  </defs>
  <g id="Grupo_2275" data-name="Grupo 2275" transform="translate(0 10)">
    <rect id="Rectángulo_1518" data-name="Rectángulo 1518" width="111.214" height="24.467" rx="11" transform="translate(62.28 78.548)" fill="#e6e6e6"/>
    <rect id="Rectángulo_1523" data-name="Rectángulo 1523" width="111.214" height="24.467" rx="11" transform="translate(6.673 40.736)" fill="#e6e6e6"/>
    <rect id="Rectángulo_1520" data-name="Rectángulo 1520" width="111.214" height="24.467" rx="11" transform="translate(0 114.137)" fill="#e6e6e6"/>
    <g transform="matrix(1, 0, 0, 1, 0, -10)" filter="url(#Trazado_3295)">
      <g id="Trazado_3295-2" data-name="Trazado 3295" transform="translate(32.25 31.4)" fill="#fff">
        <path d="M 97.36832427978516 134.0689392089844 L 0.499994695186615 134.0689392089844 L 0.499994695186615 0.4999968707561493 L 86.36541748046875 0.4999968707561493 L 92.34208679199219 5.930760383605957 L 92.34663391113281 5.934887886047363 L 92.35128784179688 5.938906192779541 L 97.36832427978516 10.27763366699219 L 97.36832427978516 134.0689392089844 Z" stroke="none"/>
        <path d="M 0.9999923706054688 1 L 0.9999923706054688 133.5689392089844 L 96.86832427978516 133.5689392089844 L 96.86832427978516 10.50624847412109 L 92.02421569824219 6.317092895507813 L 92.01492309570313 6.309066772460938 L 92.00585174560547 6.300796508789063 L 86.17221069335938 1 L 0.9999923706054688 1 M -7.62939453125e-06 0 L 86.55867004394531 0 L 92.67833709716797 5.560699462890625 L 97.86832427978516 10.04898071289063 L 97.86832427978516 134.5689392089844 L -7.62939453125e-06 134.5689392089844 L -7.62939453125e-06 0 Z" stroke="none" fill="#d7d8d9"/>
      </g>
    </g>
    <path id="Trazado_3296" data-name="Trazado 3296" d="M281,866v10.751h11.121" transform="translate(-163.113 -844.596)" fill="none" stroke="#d7d8d9" stroke-width="1"/>
    <rect id="Rectángulo_1499" data-name="Rectángulo 1499" width="52.271" height="24.467" rx="11" transform="translate(55.607 176.417)" fill="#e6e6e6"/>
    <circle id="Elipse_338" data-name="Elipse 338" cx="7.229" cy="7.229" r="7.229" transform="translate(154.587 117.473)" fill="#e6e6e6"/>
    <circle id="Elipse_339" data-name="Elipse 339" cx="7.229" cy="7.229" r="7.229" transform="translate(0 81.885)" fill="#e6e6e6"/>
    <circle id="Elipse_340" data-name="Elipse 340" cx="7.229" cy="7.229" r="7.229" transform="translate(143.466 46.296)" fill="#e6e6e6"/>
    <rect id="Rectángulo_1500" data-name="Rectángulo 1500" width="45.042" height="7.785" rx="3.892" transform="translate(63.948 75.212)" fill="#e6e6e6"/>
    <rect id="Rectángulo_1513" data-name="Rectángulo 1513" width="7.044" height="7.785" rx="3.522" transform="translate(50.788 75.212)" fill="#e6e6e6"/>
    <rect id="Rectángulo_1510" data-name="Rectángulo 1510" width="45.042" height="7.785" rx="3.892" transform="translate(63.948 90.782)" fill="#e6e6e6"/>
    <rect id="Rectángulo_1514" data-name="Rectángulo 1514" width="7.044" height="7.785" rx="3.522" transform="translate(50.788 90.782)" fill="#e6e6e6"/>
    <rect id="Rectángulo_1511" data-name="Rectángulo 1511" width="45.042" height="7.785" rx="3.892" transform="translate(63.948 106.352)" fill="#e6e6e6"/>
    <rect id="Rectángulo_1515" data-name="Rectángulo 1515" width="7.044" height="7.785" rx="3.522" transform="translate(50.788 106.352)" fill="#e6e6e6"/>
    <g id="Grupo_2256" data-name="Grupo 2256" transform="translate(66.728 34.75)">
      <g transform="matrix(1, 0, 0, 1, -66.73, -44.75)" filter="url(#Elipse_348)">
        <g id="Elipse_348-2" data-name="Elipse 348" transform="translate(67 44.5)" fill="#fff" stroke="#d7d8d9" stroke-width="1" opacity="0.6">
          <circle cx="15" cy="15" r="15" stroke="none"/>
          <circle cx="15" cy="15" r="14.5" fill="none"/>
        </g>
      </g>
      <path id="Trazado_3277" data-name="Trazado 3277" d="M616.647,188.332c.048,0,4.023.016,4.023.016l.888-2.673s-3.579-.056-4.985-.056a7.812,7.812,0,0,0-2.728.572,6.122,6.122,0,0,0-2.7,2.931c-.015.038-.717,1.958-.764,2.257H606.95l-.842,2.889,3.441-.014-.258.9h-1.655l-.266,1.08,1.611,0-.676,2.357h3.321l.667-2.354,1.816,0,.266-1.08-1.776,0,.255-.9h3.09l.865-2.888h-3.137l.471-1.313A3.213,3.213,0,0,1,616.647,188.332Z" transform="translate(-598.203 -175.882)" fill="#e6e6e6"/>
    </g>
    <path id="Trazado_3297" data-name="Trazado 3297" d="M616.647,188.332c.048,0,4.023.016,4.023.016l.888-2.673s-3.579-.056-4.985-.056a7.812,7.812,0,0,0-2.728.572,6.122,6.122,0,0,0-2.7,2.931c-.015.038-.717,1.958-.764,2.257H606.95l-.842,2.889,3.441-.014-.258.9h-1.655l-.266,1.08,1.611,0-.676,2.357h3.321l.667-2.354,1.816,0,.266-1.08-1.776,0,.255-.9h3.09l.865-2.888h-3.137l.471-1.313A3.213,3.213,0,0,1,616.647,188.332Z" transform="translate(-594.867 -19.909)" fill="#e6e6e6"/>
    <path id="Trazado_3298" data-name="Trazado 3298" d="M616.647,188.332c.048,0,4.023.016,4.023.016l.888-2.673s-3.579-.056-4.985-.056a7.812,7.812,0,0,0-2.728.572,6.122,6.122,0,0,0-2.7,2.931c-.015.038-.717,1.958-.764,2.257H606.95l-.842,2.889,3.441-.014-.258.9h-1.655l-.266,1.08,1.611,0-.676,2.357h3.321l.667-2.354,1.816,0,.266-1.08-1.776,0,.255-.9h3.09l.865-2.888h-3.137l.471-1.313A3.213,3.213,0,0,1,616.647,188.332Z" transform="translate(-463.634 -185.618)" fill="#e6e6e6"/>
  </g>
  <g id="Grupo_2294" data-name="Grupo 2294" transform="translate(61.607 138.958)">
    <circle id="Elipse_341" data-name="Elipse 341" cx="22.248" cy="22.248" r="22.248" transform="translate(5.721 3.178)" fill="#ccc" opacity="0.74"/>
    <circle id="Elipse_342" data-name="Elipse 342" cx="23.837" cy="23.837" r="23.837" transform="translate(0 0)" fill="red"/>
    <path id="Trazado_3280" data-name="Trazado 3280" d="M578.713,284.1A23.857,23.857,0,0,1,608.5,261.011a23.836,23.836,0,1,0-24.6,37.915A23.729,23.729,0,0,1,578.713,284.1Z" transform="translate(-566 -252)" fill="#3a0303" opacity="0.22"/>
    <text id="x" transform="translate(11.393 38.042)" fill="#fff" font-size="46" font-family="OpenSans-Semibold, Open Sans" font-weight="600"><tspan x="0" y="0">x</tspan></text>
  </g>
  <text id="x-2" data-name="x" transform="translate(12 26)" fill="#d7d8d9" font-size="24" font-family="OpenSans-Bold, Open Sans" font-weight="700"><tspan x="-6.938" y="0">x</tspan></text>
  <text id="x-3" data-name="x" transform="translate(153 185)" fill="#d7d8d9" font-size="24" font-family="OpenSans-Bold, Open Sans" font-weight="700"><tspan x="-6.938" y="0">x</tspan></text>
</svg>
