<svg id="Componente" xmlns="http://www.w3.org/2000/svg" xmlns:xlink="http://www.w3.org/1999/xlink" width="236.906" height="230.884" viewBox="0 0 236.906 230.884">
  <defs>
    <filter id="Trazado_3313" x="98.913" y="27.502" width="136" height="120.998" filterUnits="userSpaceOnUse">
      <feOffset dy="3" input="SourceAlpha"/>
      <feGaussianBlur stdDeviation="5" result="blur"/>
      <feFlood flood-opacity="0.161"/>
      <feComposite operator="in" in2="blur"/>
      <feComposite in="SourceGraphic"/>
    </filter>
    <filter id="Elipse_348" x="137.413" y="37.502" width="60" height="60" filterUnits="userSpaceOnUse">
      <feOffset dy="3" input="SourceAlpha"/>
      <feGaussianBlur stdDeviation="5" result="blur-2"/>
      <feFlood flood-opacity="0.169"/>
      <feComposite operator="in" in2="blur-2"/>
      <feComposite in="SourceGraphic"/>
    </filter>
    <filter id="Trazado_3314" x="9.913" y="59.502" width="136" height="120.998" filterUnits="userSpaceOnUse">
      <feOffset dy="3" input="SourceAlpha"/>
      <feGaussianBlur stdDeviation="5" result="blur-3"/>
      <feFlood flood-opacity="0.161"/>
      <feComposite operator="in" in2="blur-3"/>
      <feComposite in="SourceGraphic"/>
    </filter>
    <filter id="Elipse_348-2" x="48.413" y="69.502" width="60" height="60" filterUnits="userSpaceOnUse">
      <feOffset dy="3" input="SourceAlpha"/>
      <feGaussianBlur stdDeviation="5" result="blur-4"/>
      <feFlood flood-opacity="0.169"/>
      <feComposite operator="in" in2="blur-4"/>
      <feComposite in="SourceGraphic"/>
    </filter>
  </defs>
  <rect id="Rectángulo_1525" data-name="Rectángulo 1525" width="111.214" height="24.467" rx="11" transform="translate(125.692 55.548)" fill="#e6e6e6"/>
  <rect id="Rectángulo_1526" data-name="Rectángulo 1526" width="111.214" height="24.467" rx="11" transform="translate(7.413 109.137)" fill="#e6e6e6"/>
  <rect id="Rectángulo_1527" data-name="Rectángulo 1527" width="52.271" height="24.467" rx="11" transform="translate(100.02 206.417)" fill="#e6e6e6"/>
  <circle id="Elipse_349" data-name="Elipse 349" cx="7.229" cy="7.229" r="7.229" transform="translate(0 64.473)" fill="#e6e6e6"/>
  <circle id="Elipse_350" data-name="Elipse 350" cx="7.229" cy="7.229" r="7.229" transform="translate(44.413 111.885)" fill="#e6e6e6"/>
  <circle id="Elipse_351" data-name="Elipse 351" cx="7.229" cy="7.229" r="7.229" transform="translate(33.879 30.296)" fill="#e6e6e6"/>
  <path id="participacion" d="M17.434,7.63,10.273.469A1.363,1.363,0,0,0,9.327,0c-.438,0-.951.329-.951,1.254V5.669A9,9,0,0,0,.513,17.647a.527.527,0,0,0,.994,0,7.975,7.975,0,0,1,6.869-5.272v4.369c0,.926.512,1.254.951,1.254a1.363,1.363,0,0,0,.945-.469l7.162-7.162a1.939,1.939,0,0,0,0-2.737Zm-.746,1.992L9.527,16.784c-.034.034-.064.061-.09.082a1.154,1.154,0,0,1-.006-.121v-4.92A.527.527,0,0,0,8.9,11.3H8.9a9.008,9.008,0,0,0-7.747,4.59A7.951,7.951,0,0,1,8.91,6.7a.527.527,0,0,0,.522-.527V1.254a1.2,1.2,0,0,1,.006-.121,1.209,1.209,0,0,1,.09.082l7.162,7.162a.885.885,0,0,1,0,1.246Zm0,0" transform="translate(63.412 182.001)" fill="#d7d8d9"/>
  <path id="participacion-2" data-name="participacion" d="M17.434,7.63,10.273.469A1.363,1.363,0,0,0,9.327,0c-.438,0-.951.329-.951,1.254V5.669A9,9,0,0,0,.513,17.647a.527.527,0,0,0,.994,0,7.975,7.975,0,0,1,6.869-5.272v4.369c0,.926.512,1.254.951,1.254a1.363,1.363,0,0,0,.945-.469l7.162-7.162a1.939,1.939,0,0,0,0-2.737Zm-.746,1.992L9.527,16.784c-.034.034-.064.061-.09.082a1.154,1.154,0,0,1-.006-.121v-4.92A.527.527,0,0,0,8.9,11.3H8.9a9.008,9.008,0,0,0-7.747,4.59A7.951,7.951,0,0,1,8.91,6.7a.527.527,0,0,0,.522-.527V1.254a1.2,1.2,0,0,1,.006-.121,1.209,1.209,0,0,1,.09.082l7.162,7.162a.885.885,0,0,1,0,1.246Zm0,0" transform="translate(105.412 8.001)" fill="#d7d8d9"/>
  <path id="Trazado_3311" data-name="Trazado 3311" stroke="#d7d8d9" d="M2487,135.686V86.5h22.5" fill="none" transform="translate(-2409.587 -70)" stroke-linecap="round" stroke-linejoin="round" stroke-width="2" stroke-dasharray="3 4"/>
  <path id="Trazado_3312" data-name="Trazado 3312" stroke="#d7d8d9" d="M2540.742,86.5H2569V103" fill="none" transform="translate(-2409.587 -70)" stroke-linecap="round" stroke-linejoin="round" stroke-width="2" stroke-dasharray="3 4"/>
  <g transform="matrix(1, 0, 0, 1, 0, 0)" filter="url(#Trazado_3313)">
    <g id="Trazado_3313-2" data-name="Trazado 3313" transform="translate(113.91 39.5)" fill="#fff">
      <path d="M 105.5 90.49816131591797 L 0.5 90.49816131591797 L 0.5 0.5000044703483582 L 93.75065612792969 0.5000044703483582 L 105.5 0.5000044703483582 L 105.5 6.795324325561523 L 105.5 90.49816131591797 Z" stroke="none"/>
      <path d="M 1 1 L 1 89.9981689453125 L 105 89.9981689453125 L 105 6.795326232910156 L 105 1 L 93.75064086914063 1 L 1 1 M 0 0 L 93.75064086914063 0 L 106 0 L 106 6.795326232910156 L 106 90.9981689453125 L 0 90.9981689453125 L 0 0 Z" stroke="none" fill="#d7d8d9"/>
    </g>
  </g>
  <text id="_0_00" data-name="0,00" transform="translate(140.413 109)" fill="#d7d8d9" font-size="27" font-family="OpenSans-Semibold, Open Sans" font-weight="600"><tspan x="0" y="0">0,00</tspan></text>
  <g id="Grupo_2283" data-name="Grupo 2283" transform="translate(152.141 49.75)">
    <g transform="matrix(1, 0, 0, 1, -152.14, -49.75)" filter="url(#Elipse_348)">
      <g id="Elipse_348-3" data-name="Elipse 348" transform="translate(152.41 49.5)" fill="#fff" stroke="#d7d8d9" stroke-width="1" opacity="0.6">
        <circle cx="15" cy="15" r="15" stroke="none"/>
        <circle cx="15" cy="15" r="14.5" fill="none"/>
      </g>
    </g>
    <path id="Trazado_3307" data-name="Trazado 3307" d="M616.647,188.332c.048,0,4.023.016,4.023.016l.888-2.673s-3.579-.056-4.985-.056a7.812,7.812,0,0,0-2.728.572,6.122,6.122,0,0,0-2.7,2.931c-.015.038-.717,1.958-.764,2.257H606.95l-.842,2.889,3.441-.014-.258.9h-1.655l-.266,1.08,1.611,0-.676,2.357h3.321l.667-2.354,1.816,0,.266-1.08-1.776,0,.255-.9h3.09l.865-2.888h-3.137l.471-1.313A3.213,3.213,0,0,1,616.647,188.332Z" transform="translate(-598.203 -176.883)" fill="#e6e6e6"/>
  </g>
  <g transform="matrix(1, 0, 0, 1, 0, 0)" filter="url(#Trazado_3314)">
    <g id="Trazado_3314-2" data-name="Trazado 3314" transform="translate(24.91 71.5)" fill="#fff">
      <path d="M 105.5 90.49816131591797 L 0.5 90.49816131591797 L 0.5 0.5000044703483582 L 93.75065612792969 0.5000044703483582 L 105.5 0.5000044703483582 L 105.5 6.795324325561523 L 105.5 90.49816131591797 Z" stroke="none"/>
      <path d="M 1 1 L 1 89.9981689453125 L 105 89.9981689453125 L 105 6.795326232910156 L 105 1 L 93.75064086914063 1 L 1 1 M 0 0 L 93.75064086914063 0 L 106 0 L 106 6.795326232910156 L 106 90.9981689453125 L 0 90.9981689453125 L 0 0 Z" stroke="none" fill="#d7d8d9"/>
    </g>
  </g>
  <text id="_0_00-2" data-name="0,00" transform="translate(51.413 141)" fill="#d7d8d9" font-size="27" font-family="OpenSans-Semibold, Open Sans" font-weight="600"><tspan x="0" y="0">0,00</tspan></text>
  <g id="Grupo_2284" data-name="Grupo 2284" transform="translate(63.141 81.75)">
    <g transform="matrix(1, 0, 0, 1, -63.14, -81.75)" filter="url(#Elipse_348-2)">
      <g id="Elipse_348-4" data-name="Elipse 348" transform="translate(63.41 81.5)" fill="#fff" stroke="#d7d8d9" stroke-width="1" opacity="0.6">
        <circle cx="15" cy="15" r="15" stroke="none"/>
        <circle cx="15" cy="15" r="14.5" fill="none"/>
      </g>
    </g>
    <path id="Trazado_3308" data-name="Trazado 3308" d="M616.647,188.332c.048,0,4.023.016,4.023.016l.888-2.673s-3.579-.056-4.985-.056a7.812,7.812,0,0,0-2.728.572,6.122,6.122,0,0,0-2.7,2.931c-.015.038-.717,1.958-.764,2.257H606.95l-.842,2.889,3.441-.014-.258.9h-1.655l-.266,1.08,1.611,0-.676,2.357h3.321l.667-2.354,1.816,0,.266-1.08-1.776,0,.255-.9h3.09l.865-2.888h-3.137l.471-1.313A3.213,3.213,0,0,1,616.647,188.332Z" transform="translate(-598.203 -176.883)" fill="#e6e6e6"/>
  </g>
  <g id="Grupo_2280" data-name="Grupo 2280" transform="translate(101.02 144.958)">
    <circle id="Elipse_341" data-name="Elipse 341" cx="22.248" cy="22.248" r="22.248" transform="translate(5.721 3.178)" fill="#ccc" opacity="0.74"/>
    <circle id="Elipse_342" data-name="Elipse 342" cx="23.837" cy="23.837" r="23.837" transform="translate(0 0)" fill="#fa0"/>
    <path id="Trazado_3280" data-name="Trazado 3280" d="M578.713,284.1A23.857,23.857,0,0,1,608.5,261.011a23.836,23.836,0,1,0-24.6,37.915A23.729,23.729,0,0,1,578.713,284.1Z" transform="translate(-566 -252)" fill="#bf8000" opacity="0.22"/>
    <text id="_" data-name="!" transform="translate(23.393 41.042)" fill="#fff" font-size="46" font-family="OpenSans-Semibold, Open Sans" font-weight="600"><tspan x="-6.345" y="0">!</tspan></text>
  </g>
  <text id="x" transform="translate(177.413 178)" fill="#d7d8d9" font-size="24" font-family="OpenSans-Bold, Open Sans" font-weight="700"><tspan x="-6.938" y="0">x</tspan></text>
  <text id="x-2" data-name="x" transform="translate(189.413 26)" fill="#d7d8d9" font-size="24" font-family="OpenSans-Bold, Open Sans" font-weight="700"><tspan x="-6.938" y="0">x</tspan></text>
</svg>
