<svg xmlns="http://www.w3.org/2000/svg" width="144.661" height="22.299" viewBox="0 0 144.661 22.299">
  <g id="Grupo_1044" data-name="Grupo 1044" transform="translate(-159.196 -243.157)">
    <g id="Grupo_1040" data-name="Grupo 1040" transform="translate(159.197 243.157)">
      <g id="Grupo_1039" data-name="Grupo 1039" transform="translate(0 0)">
        <path id="Trazado_268" data-name="Trazado 268" d="M172.6,243.16l-6.441,0a3.666,3.666,0,0,0-3.418,2.682l-.038.186-3.452,16.845a2.06,2.06,0,0,0,2.1,2.578l18.836.008a3.359,3.359,0,0,0,3.153-2.576l.484-2.365-4.26,0a2.4,2.4,0,0,1-2.443-3l.854-2.923a3.929,3.929,0,0,1,3.673-3l4.005,0,.441-2.152a1.747,1.747,0,0,0-1.773-2.18l.256-1.249a2.273,2.273,0,0,0-2.313-2.844l-3.3,0m.136,4.092-10.365,0m11.067-2.493h2.138a1,1,0,0,1,1.016,1.249l-.256,1.249h-1.6l-15.129-.006h-.649A1,1,0,0,1,164.3,246a1.624,1.624,0,0,1,1.528-1.248l4.195,0" transform="translate(-159.197 -243.157)" fill="#019d99"/>
        <path id="Trazado_269" data-name="Trazado 269" d="M241.957,280.7l-4.9,0a2.4,2.4,0,0,0-2.276,1.859l-.854,2.923a1.478,1.478,0,0,0,1.513,1.861l5.154,0a.843.843,0,0,0,.78-.637l1.1-5.367A.5.5,0,0,0,241.957,280.7Zm-4.834,4.7a1.1,1.1,0,0,1-1.13-1.356,1.81,1.81,0,0,1,1.691-1.381,1.092,1.092,0,0,1,1.1,1.382A1.724,1.724,0,0,1,237.123,285.4Z" transform="translate(-214.845 -271.126)" fill="#019d99"/>
      </g>
    </g>
    <g id="Grupo_1043" data-name="Grupo 1043" transform="translate(161.911 247.086)">
      <path id="Trazado_279" data-name="Trazado 279" d="M189.975,261.923l-5.375.1c.018.031-.045.034-.107.038a4.134,4.134,0,0,0-3.22,2.212l-.775,2.538h4.036l-1.113,3.716h-3.976l-1.411,4.732H173.76l1.431-4.732-5.347.018,1.083-3.717h5.337c.06-.385,1.1-3.609,1.1-3.609l.058-.143a7.874,7.874,0,0,1,3.471-3.771,10.052,10.052,0,0,1,3.509-.736c1.809,0,6.261.072,6.261.072Z" transform="translate(-169.844 -258.565)" fill="#fff"/>
    </g>
    <g id="Grupo_1637" data-name="Grupo 1637" transform="translate(193.782 249.197)">
      <path id="Trazado_3164" data-name="Trazado 3164" d="M193.094,655.4l-1.351,5.185s-.55,2.105.518,2.325l2.168.031,3.6-13.732h-3.676l-5.5,8.673-.943-8.673H184.2l-3.519,13.778h2.545l2.168-7.934.456,6.489a1.735,1.735,0,0,0,.88,1.445c.071.038,1.744,0,1.744,0Z" transform="translate(-145.955 -649.178)" fill="#019d99"/>
      <path id="Trazado_3165" data-name="Trazado 3165" d="M.136,649.2l-3.651,13.778H-.026l1.387-5.42a.908.908,0,0,1,.88-.691c.723,0,3.708-.031,3.708-.031l.566-2.2-3.441-.016a1.5,1.5,0,0,0-1.1.912l1.065-3.775c.144-.266.3-.443.456-.452l4.839-.063.518-2.043Z" transform="translate(3.515 -649.178)" fill="#019d99"/>
      <path id="Trazado_3166" data-name="Trazado 3166" d="M41.583,662.983l5.562-8.813.691,7.227s.126,1.6.974,1.586,2.671,0,2.671,0L50.161,649.2H47.553l-8.7,13.778Z" transform="translate(-30.862 -649.178)" fill="#019d99"/>
      <path id="Trazado_3167" data-name="Trazado 3167" d="M117.5,662.983l3.166-11.547c3.378-1.053,3.017,1.9,1.911,2.81a11.127,11.127,0,0,0-2.5,2.39,2.63,2.63,0,0,0-.053,2.058c1.249,3.888,1.6,4.288,1.6,4.288h3.346l-1.791-6.127a.157.157,0,0,1,.079-.066,5.323,5.323,0,0,0,3.473-3.883,3.344,3.344,0,0,0,.052-1.377,2.547,2.547,0,0,0-2.067-2.069,8.975,8.975,0,0,0-2.055-.256h-4.878l-3.724,13.778Z" transform="translate(-91.891 -649.178)" fill="#019d99"/>
      <path id="Trazado_3168" data-name="Trazado 3168" d="M262.083,663.029l5.562-8.813.691,7.227s.126,1.6.974,1.586,2.671,0,2.671,0l-1.32-13.778h-2.608l-8.7,13.778Z" transform="translate(-209.79 -649.215)" fill="#019d99"/>
      <g id="Grupo_1636" data-name="Grupo 1636" transform="translate(63.441)">
        <path id="Trazado_3169" data-name="Trazado 3169" d="M386.833,663.032l5.562-8.813.691,7.227s.126,1.6.974,1.586,2.671,0,2.671,0l-1.32-13.778H392.8l-8.7,13.778Z" transform="translate(-374.462 -649.218)" fill="#002665"/>
        <path id="Trazado_3170" data-name="Trazado 3170" d="M346.27,650.046a4.266,4.266,0,0,0-3.021-.792h-6.615l-3.651,13.778h3.489l1.387-5.42a.908.908,0,0,1,.88-.691c.381,0,1.391-.021,2.26-.017.148,0,.286,0,.421-.006h0c.356-.01.638-.012,1.062-.038,2.4-.171,3.787-1.107,4.383-3.843A3.092,3.092,0,0,0,346.27,650.046Zm-1.8,2.49c-.338,1.553-.531,2.09-2.059,2.151l-2.835-.013a1.5,1.5,0,0,0-1.1.912l1.065-3.775c.144-.266.3-.443.456-.452l3.405-.044h0C344.749,651.307,344.567,652.078,344.467,652.536Z" transform="translate(-332.984 -649.218)" fill="#002665"/>
        <path id="Trazado_3171" data-name="Trazado 3171" d="M528.984,649.061H521.73a1.891,1.891,0,0,0-1.664,1.7l-1.528,10.384c-.138.937.384,1.7,1.165,1.7h7.254a1.891,1.891,0,0,0,1.664-1.7l1.528-10.384C530.286,649.821,529.765,649.061,528.984,649.061ZM527.05,652.3l-1.145,7.268c-.1.656-.455,1.185-.786,1.182l-3.071-.029c-.331,0-.515-.537-.412-1.193l1.145-7.267c.1-.656.455-1.185.786-1.182l3.071.029C526.969,651.11,527.153,651.644,527.05,652.3Z" transform="translate(-483.537 -649.061)" fill="#002665"/>
        <path id="Trazado_3172" data-name="Trazado 3172" d="M467.289,649.249h-7.254a1.891,1.891,0,0,0-1.664,1.7l-1.528,10.384c-.138.937.384,1.7,1.165,1.7h7.254a1.891,1.891,0,0,0,1.664-1.7l.727-4.741a.922.922,0,0,0-.936-1.072c-.609,0-1.22-.015-1.839,0h-1.321a1.111,1.111,0,0,0-1.089.89l-.24,1.184h2.323l-.341,2.165c-.1.656-.455,1.185-.786,1.182l-3.071-.029c-.331,0-.515-.537-.412-1.193l1.145-7.268c.1-.656.455-1.185.786-1.182l3.071.029c.331,0,.5.169.412,1.193l2.038.01c.478,0,.507-.347.576-.82l.107-.731C468.215,650.008,468.1,649.212,467.289,649.249Z" transform="translate(-433.474 -649.212)" fill="#002665"/>
      </g>
    </g>
  </g>
</svg>
