<svg xmlns="http://www.w3.org/2000/svg" width="45" height="45" viewBox="0 0 45 45">
  <g id="Grupo_2245" data-name="Grupo 2245" transform="translate(-792 -218)">
    <g id="Grupo_1967" data-name="Grupo 1967" transform="translate(15 3)">
      <path id="Trazado_3251" data-name="Trazado 3251" d="M22.5,0A22.5,22.5,0,1,1,0,22.5,22.5,22.5,0,0,1,22.5,0Z" transform="translate(777 215)" fill="rgba(8,230,230,0.49)"/>
    </g>
    <path id="Trazado_3275" data-name="Trazado 3275" d="M603.493,381.946c.085-.005,7.152.028,7.152.028l1.579-4.753s-6.363-.1-8.863-.1a13.89,13.89,0,0,0-4.85,1.017,10.88,10.88,0,0,0-4.8,5.211c-.027.066-1.276,3.482-1.359,4.013h-6.1l-1.5,5.136,6.118-.025-.459,1.6-2.943,0L587,395.991l2.866,0-1.2,4.19h5.906L595.752,396l3.229,0,.474-1.921-3.158,0,.455-1.6h5.494l1.538-5.136h-5.577l.837-2.335A5.714,5.714,0,0,1,603.493,381.946Z" transform="translate(216.593 -148.121)" fill="#05bebe"/>
  </g>
</svg>
