<svg xmlns="http://www.w3.org/2000/svg" width="16.952" height="14.054" viewBox="0 0 16.952 14.054">
    <defs>
        <style>
            .cls-1{fill:#8cb7d8;stroke:#8cb7d8;stroke-width: 0px;opacity:0.2;}
        </style>
    </defs>
    <path id="farmacoin" d="M4.424 15.854H.878l.667-2.325H-.039L.289 12.2h1.636l.179-.627-3.394.014.91-3.107H3c.13-.512.73-2.131.736-2.146a6.1 6.1 0 0 1 2.718-2.955A7.756 7.756 0 0 1 9.2 2.8c1.372 0 4.884.055 4.92.056h.18l-.961 2.9h-.095c-1.332-.007-3.865-.017-3.961-.016A3.051 3.051 0 0 0 6.93 7.353l-.4 1.114h3.084l-.931 3.109H5.64l-.182.629H7.2l-.328 1.326h-1.79zm-3.2-.26h3.004l.658-2.321H6.68l.2-.806H5.12l.325-1.15h3.044l.78-2.589H6.16l.533-1.48a3.265 3.265 0 0 1 2.578-1.769c.048 0 2.861.01 3.882.016l.789-2.379C13.209 3.1 10.4 3.063 9.2 3.063a7.564 7.564 0 0 0-2.639.55 5.962 5.962 0 0 0-2.587 2.82c-.027.072-.7 1.927-.745 2.2l-.017.111h-3.4l-.755 2.586 3.393-.014-.329 1.148H.493l-.2.8h1.6z" class="cls-1" transform="translate(1.958 -2.3)"/>
</svg>
