<svg xmlns="http://www.w3.org/2000/svg" width="18.714" height="16.25" viewBox="0 0 18.714 16.25">
  <path id="Trazado_3258" data-name="Trazado 3258" d="M371.112,347.317h-.089l-1.756-.007a1.888,1.888,0,0,0-.2.012H368.6a1.806,1.806,0,0,0-1.738,1.333l-1.531,5.6-1.943-.007a2.322,2.322,0,0,0-2.239,1.682l-.591,2.062,3.748.012-.283,1.033h-1.3a.779.779,0,0,0-.75.569l-.31,1.113h1.9l-.5,1.836,3.886-.01.5-1.826h.932a1.23,1.23,0,0,0,1.185-.9l.218-.782h-1.875l.279-1.02,2.114.007a2.466,2.466,0,0,0,2.38-1.787l.56-1.956-4.027-.013.878-3.2,5.279.02a2.235,2.235,0,0,0,2.1-1.788l.495-1.955Z" transform="translate(-359.898 -346.81)" fill="none" stroke="#05bebe" stroke-width="1"/>
</svg>
