<svg xmlns="http://www.w3.org/2000/svg" width="18" height="17.999" viewBox="0 0 18 17.999">
    <defs>
        <style>
            .cls-1{fill:#fff}
        </style>
    </defs>
    <path id="participacion" d="M17.434 7.63L10.273.469A1.363 1.363 0 0 0 9.327 0c-.438 0-.951.329-.951 1.254v4.415A9 9 0 0 0 .513 17.647a.527.527 0 0 0 .994 0 7.975 7.975 0 0 1 6.869-5.272v4.369c0 .926.512 1.254.951 1.254a1.363 1.363 0 0 0 .945-.469l7.162-7.162a1.939 1.939 0 0 0 0-2.737zm-.746 1.992l-7.161 7.162a1.162 1.162 0 0 1-.09.082 1.154 1.154 0 0 1-.006-.121v-4.92A.527.527 0 0 0 8.9 11.3a9.008 9.008 0 0 0-7.747 4.59A7.951 7.951 0 0 1 8.91 6.7a.527.527 0 0 0 .522-.527V1.254a1.2 1.2 0 0 1 .006-.121 1.209 1.209 0 0 1 .09.082l7.162 7.162a.885.885 0 0 1 0 1.246zm0 0" class="cls-1" transform="translate(0 .001)"/>
</svg>
