<svg xmlns="http://www.w3.org/2000/svg" width="19.738" height="18" viewBox="0 0 19.738 18">
    <defs>
        <style>
            .cls-1{fill:#05bebe}
        </style>
    </defs>
    <path id="participacion" d="M.62 7.631L8.473.469A1.555 1.555 0 0 1 9.51 0c.481 0 1.042.329 1.042 1.254V5.67a10.24 10.24 0 0 1 6.331 2.648 8.559 8.559 0 0 1 2.854 6.33 8.268 8.268 0 0 1-.562 3 .6.6 0 0 1-1.09 0 8.664 8.664 0 0 0-7.533-5.272v4.369c0 .926-.561 1.254-1.042 1.254a1.555 1.555 0 0 1-1.037-.469L.62 10.368a1.821 1.821 0 0 1 0-2.737zm.818 1.992l7.853 7.162c.037.034.07.061.1.082a1.053 1.053 0 0 0 .006-.121v-4.92a.5.5 0 0 1 .172-.375.608.608 0 0 1 .407-.152h.006a10.444 10.444 0 0 1 5.687 1.717 9.328 9.328 0 0 1 2.808 2.874 7.313 7.313 0 0 0 .106-1.24c0-4.332-3.864-7.9-8.613-7.944a.554.554 0 0 1-.57-.529V1.254a1.1 1.1 0 0 0-.006-.121 1.274 1.274 0 0 0-.1.082L1.438 8.377a.831.831 0 0 0 0 1.246zm0 0" class="cls-1"/>
</svg>
