<svg xmlns="http://www.w3.org/2000/svg" width="17.998" height="17.999" viewBox="0 0 17.998 17.999">
    <defs>
        <style>
            .cls-1{fill:#fff}
        </style>
    </defs>
    <path id="casa" d="M18.014 7.828L10.671.485a1.657 1.657 0 0 0-2.343 0L.988 7.823l-.007.008a1.656 1.656 0 0 0 1.1 2.823h.344v5.4A1.942 1.942 0 0 0 4.367 18h2.872a.527.527 0 0 0 .527-.527v-4.238a.886.886 0 0 1 .885-.885h1.694a.886.886 0 0 1 .885.885v4.236a.527.527 0 0 0 .527.527h2.873a1.942 1.942 0 0 0 1.939-1.939v-5.4h.271a1.657 1.657 0 0 0 1.173-2.828zm-.747 1.6a.6.6 0 0 1-.426.177h-.8a.527.527 0 0 0-.527.527v5.93a.886.886 0 0 1-.885.885h-2.344v-3.712a1.942 1.942 0 0 0-1.939-1.935H8.652a1.942 1.942 0 0 0-1.94 1.939v3.709H4.367a.886.886 0 0 1-.885-.885v-5.93a.527.527 0 0 0-.527-.533h-.81a.6.6 0 0 1-.415-1.027L9.073 1.23a.6.6 0 0 1 .852 0l7.341 7.34a.6.6 0 0 1 0 .851zm0 0" class="cls-1" transform="translate(-.5)"/>
</svg>
