<svg id="notificaciones_recibidas" xmlns="http://www.w3.org/2000/svg" width="24" height="22" viewBox="0 0 24 22">
  <g id="Grupo_1988" data-name="Grupo 1988" transform="translate(-82 -599)">
    <g id="Grupo_1987" data-name="Grupo 1987" transform="translate(-1119.417 572)">
      <g id="Elipse_329" data-name="Elipse 329" transform="translate(1206.417 43)" fill="#019d99" stroke="#2f3d55" stroke-width="1">
        <ellipse cx="2.5" cy="3" rx="2.5" ry="3" stroke="none"/>
        <ellipse cx="2.5" cy="3" rx="2" ry="2.5" fill="none"/>
      </g>
      <g id="Unión_4" data-name="Unión 4" transform="translate(1201.417 32)" fill="#0acbc7">
        <path d="M 12.99950981140137 13.5 L 1.998780012130737 13.5 C 1.17235004901886 13.5 0.5 12.82688045501709 0.5 11.99950981140137 C 0.5 11.17294979095459 1.17235004901886 10.50049018859863 1.998780012130737 10.50049018859863 L 2.498780012130737 10.50049018859863 L 2.498780012130737 10.00049018859863 L 2.498780012130737 5.500490188598633 L 2.498780012130737 5.270671367645264 L 2.51921010017395 5.044489860534668 C 2.630959987640381 3.807399988174438 3.198640108108521 2.66117000579834 4.117680072784424 1.816959977149963 C 5.042200088500977 0.9677000045776367 6.243100166320801 0.5 7.499149799346924 0.5 C 8.755100250244141 0.5 9.955670356750488 0.9676799774169922 10.87969970703125 1.816879987716675 C 11.79819011688232 2.660979986190796 12.36553955078125 3.807229995727539 12.47725009918213 5.044469833374023 L 12.49950981140137 5.291042327880859 L 12.49950981140137 10.00049018859863 L 12.49950981140137 10.50049018859863 L 12.99950981140137 10.50049018859863 C 13.82688045501709 10.50049018859863 14.5 11.17294979095459 14.5 11.99950981140137 C 14.5 12.82688045501709 13.82688045501709 13.5 12.99950981140137 13.5 Z" stroke="none"/>
        <path d="M 12.99950981140137 13 C 13.55117988586426 13 14 12.55117988586426 14 11.99950981140137 C 14 11.44865036010742 13.55117988586426 11.00049018859863 12.99950981140137 11.00049018859863 L 11.99950981140137 11.00049018859863 L 11.99950981140137 10.00049018859863 L 11.99950981140137 5.313599586486816 L 11.97926998138428 5.08942985534668 C 11.87876987457275 3.976279973983765 11.36810970306396 2.944809913635254 10.5413703918457 2.185019969940186 C 9.709859848022461 1.420850038528442 8.629440307617188 1 7.499149799346924 1 C 6.368710041046143 1 5.28794002532959 1.420910000801086 4.455930233001709 2.185179948806763 C 3.62866997718811 2.945080041885376 3.117719888687134 3.976510047912598 3.017189979553223 5.089469909667969 L 2.998780012130737 5.293262958526611 L 2.998780012130737 5.500490188598633 L 2.998780012130737 10.00049018859863 L 2.998780012130737 11.00049018859863 L 1.998780012130737 11.00049018859863 C 1.448050022125244 11.00049018859863 1 11.44865036010742 1 11.99950981140137 C 1 12.55117988586426 1.448050022125244 13 1.998780012130737 13 L 12.99950981140137 13 M 12.99950981140137 14 L 1.998780012130737 14 C 0.8951399922370911 14 -8.881784197001252e-16 13.10449028015137 -8.881784197001252e-16 11.99950981140137 C -8.881784197001252e-16 10.89550971984863 0.8951399922370911 10.00049018859863 1.998780012130737 10.00049018859863 L 1.998780012130737 5.500490188598633 L 1.998780012130737 4.999509811401367 L 2.021239995956421 4.999509811401367 C 2.274410009384155 2.19677996635437 4.630620002746582 -8.881784197001252e-16 7.499149799346924 -8.881784197001252e-16 C 10.36779975891113 -8.881784197001252e-16 12.72216987609863 2.19677996635437 12.9752197265625 4.999509811401367 L 12.99950981140137 4.999509811401367 L 12.99950981140137 10.00049018859863 C 14.10303020477295 10.00049018859863 15 10.89550971984863 15 11.99950981140137 C 15 13.10449028015137 14.10303020477295 14 12.99950981140137 14 Z" stroke="none" fill="#2f3d55"/>
      </g>
      <g id="Elipse_330" data-name="Elipse 330" transform="translate(1207.417 30)" fill="#fff" stroke="#2f3d55" stroke-width="1">
        <circle cx="1.5" cy="1.5" r="1.5" stroke="none"/>
        <circle cx="1.5" cy="1.5" r="1" fill="none"/>
      </g>
    </g>
    <path id="Trazado_3263" data-name="Trazado 3263" d="M89.5,605.016,89.516,617h5.594a.933.933,0,0,0,.875-.859.973.973,0,0,0-.875-1.125H94v-5.8a4.461,4.461,0,0,0-1.437-3.031A3.459,3.459,0,0,0,89.5,605.016Z" fill="#019d99"/>
  </g>
  <g id="Grupo_1989" data-name="Grupo 1989" transform="translate(-82 -599)">
    <g id="Elipse_331" data-name="Elipse 331" transform="translate(92 599)" fill="#ff0101" stroke="#fff" stroke-width="1">
      <circle cx="7" cy="7" r="7" stroke="none"/>
      <circle cx="7" cy="7" r="6.5" fill="none"/>
    </g>
    <text id="_1" data-name="1" transform="translate(99 609)" fill="#fff" font-size="9" font-family="OpenSans-Bold, Open Sans" font-weight="700"><tspan x="-2.569" y="0">1</tspan></text>
  </g>
</svg>
